<?xml version="1.0" encoding="utf-8"?>
<!-- Generator: Adobe Illustrator 27.3.1, SVG Export Plug-In . SVG Version: 6.00 Build 0)  -->
<svg version="1.1" id="圖層_1" xmlns="http://www.w3.org/2000/svg" xmlns:xlink="http://www.w3.org/1999/xlink" x="0px" y="0px"
	 viewBox="0 0 6 10" style="enable-background:new 0 0 6 10;" xml:space="preserve">
<path d="M0,5c0,0.1,0,0.2,0.1,0.2c0,0.1,0.1,0.2,0.2,0.2l4.7,4.4C5,9.9,5.2,10,5.4,10c0.1,0,0.2,0,0.3-0.1c0.1,0,0.2-0.1,0.2-0.2
	C6,9.6,6,9.5,6,9.4C6,9.3,5.9,9.1,5.8,9L1.5,5l4.3-4C5.9,0.9,6,0.8,6,0.6c0-0.1,0-0.2-0.1-0.3C5.9,0.2,5.8,0.1,5.7,0.1
	C5.6,0,5.5,0,5.4,0C5.2,0,5,0.1,4.9,0.2L0.2,4.6C0.1,4.6,0.1,4.7,0.1,4.8C0,4.8,0,4.9,0,5z"/>
</svg>
