<svg width="36" height="42" viewBox="0 0 36 42" fill="none" xmlns="http://www.w3.org/2000/svg">
<g clip-path="url(#clip0_228_544)">
<path d="M24.0566 10.6341C24.0566 8.91278 23.4001 7.26193 22.2315 6.04474C21.063 4.82756 19.478 4.14375 17.8254 4.14375C16.1729 4.14375 14.5879 4.82756 13.4194 6.04474C12.2508 7.26193 11.5943 8.91278 11.5943 10.6341C11.5943 12.3555 12.2508 14.0064 13.4194 15.2235C14.5879 16.4407 16.1729 17.1245 17.8254 17.1245C19.478 17.1245 21.063 16.4407 22.2315 15.2235C23.4001 14.0064 24.0566 12.3555 24.0566 10.6341ZM7.85565 10.6341C7.85565 7.87997 8.90603 5.2386 10.7757 3.2911C12.6454 1.3436 15.1813 0.249512 17.8254 0.249512C20.4696 0.249512 23.0055 1.3436 24.8752 3.2911C26.7449 5.2386 27.7952 7.87997 27.7952 10.6341C27.7952 13.3883 26.7449 16.0297 24.8752 17.9772C23.0055 19.9247 20.4696 21.0188 17.8254 21.0188C15.1813 21.0188 12.6454 19.9247 10.7757 17.9772C8.90603 16.0297 7.85565 13.3883 7.85565 10.6341ZM4.21823 37.8938H31.4327C30.7395 32.7583 26.5023 28.8073 21.385 28.8073H14.2659C9.14861 28.8073 4.91144 32.7583 4.21823 37.8938ZM0.378296 39.3785C0.378296 31.3872 6.59384 24.913 14.2659 24.913H21.385C29.0571 24.913 35.2726 31.3872 35.2726 39.3785C35.2726 40.709 34.2367 41.788 32.9593 41.788H2.6916C1.41422 41.788 0.378296 40.709 0.378296 39.3785Z" fill="black"/>
</g>
<defs>
<clipPath id="clip0_228_544">
<rect width="34.8943" height="41.5385" fill="white" transform="translate(0.378296 0.249512)"/>
</clipPath>
</defs>
</svg>
