<svg width="50" height="50" viewBox="0 0 50 50" fill="none" xmlns="http://www.w3.org/2000/svg">
<g clip-path="url(#clip0_61_19)">
<path d="M9.375 31.25C4.19922 31.25 0 27.0508 0 21.875C0 17.7246 2.69531 14.1992 6.43555 12.9688C6.31836 12.3145 6.25 11.6309 6.25 10.9375C6.25 4.89258 11.1426 0 17.1875 0C21.3965 0 25.0488 2.37305 26.875 5.85938C28.3105 4.18945 30.4395 3.125 32.8125 3.125C37.1289 3.125 40.625 6.62109 40.625 10.9375C40.625 11.4746 40.5664 11.9922 40.4688 12.5C40.5176 12.5 40.5762 12.5 40.625 12.5C45.8008 12.5 50 16.6992 50 21.875C50 27.0508 45.8008 31.25 40.625 31.25H9.375ZM8.71094 36.3281C8.83789 36.084 9.0918 35.9375 9.375 35.9375C9.6582 35.9375 9.90234 36.084 10.0391 36.3281L13.4668 42.6367C13.8672 43.3691 14.0723 44.1797 14.0723 45.0098V45.3027C14.0723 47.8906 11.9727 49.9902 9.38477 49.9902C6.79688 49.9902 4.69727 47.8906 4.69727 45.3027V45.0098C4.69727 44.1797 4.90234 43.3594 5.30273 42.6367L8.71094 36.3281ZM24.3359 36.3281C24.4629 36.084 24.7168 35.9375 25 35.9375C25.2832 35.9375 25.5273 36.084 25.6641 36.3281L29.0918 42.6367C29.4922 43.3691 29.6973 44.1797 29.6973 45.0098V45.3027C29.6973 47.8906 27.5977 49.9902 25.0098 49.9902C22.4219 49.9902 20.3223 47.8906 20.3223 45.3027V45.0098C20.3223 44.1797 20.5273 43.3594 20.9277 42.6367L24.3359 36.3281ZM36.5332 42.6367L39.9609 36.3281C40.0879 36.084 40.3418 35.9375 40.625 35.9375C40.9082 35.9375 41.1523 36.084 41.2891 36.3281L44.7168 42.6367C45.1172 43.3691 45.3223 44.1797 45.3223 45.0098V45.3027C45.3223 47.8906 43.2227 49.9902 40.6348 49.9902C38.0469 49.9902 35.9473 47.8906 35.9473 45.3027V45.0098C35.9473 44.1797 36.1523 43.3594 36.5527 42.6367H36.5332Z" fill="#2EBEFC"/>
</g>
<defs>
<clipPath id="clip0_61_19">
<rect width="50" height="50" fill="white"/>
</clipPath>
</defs>
</svg>
