<svg width="50" height="50" viewBox="0 0 50 50" fill="none" xmlns="http://www.w3.org/2000/svg">
<g clip-path="url(#clip0_61_17)">
<path d="M22.9843 0.117316C23.3828 0.322394 23.664 0.771613 23.7343 1.29896L24.8359 9.57044L31.4531 10.9474C31.875 11.0353 32.2343 11.3868 32.3984 11.8849C32.5625 12.3829 32.5156 12.9493 32.2734 13.3888L29.2656 18.7599C29.0937 18.7501 28.9218 18.7404 28.7421 18.7404C26.9218 18.7404 25.2187 19.3458 23.7421 20.4103V20.3029C23.7421 15.1271 20.3828 10.9279 16.2421 10.9279C12.1015 10.9279 8.74214 15.1271 8.74214 20.3029C8.74214 25.4786 12.1015 29.6779 16.2421 29.6779C16.875 29.6779 17.4843 29.5802 18.0703 29.3947C15.2109 31.1622 13.125 34.5802 12.6171 38.6622L10.7109 40.3224C10.3593 40.6349 9.90621 40.6935 9.50777 40.4786C9.10933 40.2638 8.82808 39.8243 8.75777 39.297L7.66402 31.045L1.04683 29.6681C0.624956 29.5802 0.265581 29.2286 0.101519 28.7306C-0.0625435 28.2326 -0.0156685 27.6661 0.226519 27.2267L4.10152 20.3126L0.226519 13.3986C-0.023481 12.9591 -0.070356 12.3927 0.101519 11.8947C0.273394 11.3966 0.624956 11.0451 1.04683 10.9572L7.66402 9.58021L8.76558 1.30872C8.83589 0.781379 9.11714 0.33216 9.51558 0.127082C9.91402 -0.0779963 10.3671 -0.0194026 10.7187 0.283332L16.25 5.12708L21.7812 0.283332C22.1328 -0.0291682 22.5859 -0.087762 22.9843 0.127082V0.117316ZM11.25 20.3126C11.25 18.655 11.7767 17.0653 12.7144 15.8932C13.6521 14.7211 14.9239 14.0626 16.25 14.0626C17.576 14.0626 18.8478 14.7211 19.7855 15.8932C20.7232 17.0653 21.25 18.655 21.25 20.3126C21.25 21.9702 20.7232 23.5599 19.7855 24.732C18.8478 25.9041 17.576 26.5626 16.25 26.5626C14.9239 26.5626 13.6521 25.9041 12.7144 24.732C11.7767 23.5599 11.25 21.9702 11.25 20.3126ZM49.9921 42.1779C49.9921 46.4943 47.1953 49.9904 43.7421 49.9904H22.5C18.3593 49.9904 15 45.7911 15 40.6154C15 35.9669 17.7031 32.1193 21.25 31.3771V31.2501C21.25 26.0743 24.6093 21.8751 28.75 21.8751C31.4765 21.8751 33.8593 23.6915 35.1718 26.4064C36.1875 25.5177 37.4218 25.0001 38.75 25.0001C42.2031 25.0001 45 28.4962 45 32.8126C45 33.3888 44.9531 33.9552 44.8515 34.4923C47.7734 35.1466 49.9921 38.34 49.9921 42.1779Z" fill="#2EBEFC"/>
</g>
<defs>
<clipPath id="clip0_61_17">
<rect width="50" height="50" fill="white"/>
</clipPath>
</defs>
</svg>
