<svg width="71" height="71" viewBox="0 0 71 71" fill="none" xmlns="http://www.w3.org/2000/svg">
<g clip-path="url(#clip0_61_15)">
<path d="M54.3127 0.557617C54.9122 0.557617 55.5009 0.584869 56.0895 0.652998C56.8526 0.734753 57.4848 1.42967 57.6483 2.35623C57.8118 3.28279 57.4739 4.25022 56.809 4.7135C51.969 8.14722 48.6988 14.6604 48.6988 22.1274C48.6988 33.1643 55.8388 42.1029 64.6356 42.1029C65.5731 42.1029 66.4888 42.0075 67.3717 41.8167C68.1239 41.6532 68.876 42.1165 69.2248 42.9749C69.5737 43.8333 69.4319 44.8553 68.8869 45.5229C65.1262 50.1012 59.9811 52.9354 54.3236 52.9354C53.3098 52.9354 52.3179 52.84 51.3368 52.6765C50.1159 49.5971 48.0884 47.1035 45.603 45.632C45.3087 37.6608 40.12 31.2839 33.6995 31.0932C33.5142 29.6761 33.4161 28.2317 33.4161 26.7601C33.4052 12.2895 42.758 0.557617 54.3127 0.557617ZM49.0913 59.4077C49.0913 65.4303 45.1888 70.3084 40.3707 70.3084H10.7317C4.95439 70.3084 0.26709 64.4493 0.26709 57.2276C0.26709 50.7417 4.03873 45.3731 8.98764 44.3375V44.1604C8.98764 36.9387 13.6749 31.0795 19.4523 31.0795C23.2566 31.0795 26.5813 33.6139 28.4127 37.4019C29.8298 36.162 31.5521 35.4398 33.4052 35.4398C38.2233 35.4398 42.1257 40.3179 42.1257 46.3405C42.1257 47.1444 42.0603 47.9347 41.9186 48.6842C45.9955 49.5971 49.0913 54.0527 49.0913 59.4077Z" fill="#2EBEFC"/>
</g>
<defs>
<clipPath id="clip0_61_15">
<rect width="69.7644" height="69.7644" fill="white" transform="translate(0.26709 0.557617)"/>
</clipPath>
</defs>
</svg>
