<svg width="50" height="50" viewBox="0 0 50 50" fill="none" xmlns="http://www.w3.org/2000/svg">
<g clip-path="url(#clip0_61_21)">
<path d="M41.7708 0C36.1979 0 31.5538 4.54102 30.7031 10.5078C33.776 12.2266 35.9288 15.7129 36.0938 19.7949C38.1076 20.8691 39.7396 22.6953 40.7031 24.9414C41.0504 24.9805 41.4063 25 41.7708 25C44.8004 25 47.5608 23.6523 49.5747 21.4746C50.0174 20.9961 50.1302 20.2539 49.8524 19.6484C49.5747 19.043 48.9757 18.7012 48.3767 18.8086C47.9514 18.8867 47.5087 18.9355 47.0573 18.9355C42.8038 18.9355 39.3837 15.0977 39.3837 10.4004C39.3837 7.2168 40.9462 4.43359 43.2813 2.96875C43.8108 2.63672 44.0885 1.94336 43.9583 1.26953C43.8281 0.595703 43.3247 0.0976562 42.717 0.0390625C42.4045 0.00976562 42.0833 -0.00976562 41.7708 -0.00976562V0ZM31.9358 37.4902C35.7726 37.4902 38.8802 33.9941 38.8802 29.6777C38.8802 25.8398 36.4149 22.6367 33.1684 21.9922C33.2726 21.4453 33.3333 20.8887 33.3333 20.3125C33.3333 15.9961 30.2257 12.5 26.3889 12.5C24.9132 12.5 23.5417 13.0176 22.4132 13.9062C20.9462 11.1914 18.2986 9.375 15.2778 9.375C10.6771 9.375 6.94444 13.5742 6.94444 18.75V18.877C3.00347 19.6191 0 23.4766 0 28.1152C0 33.291 3.73264 37.4902 8.33333 37.4902H31.9358ZM7.4132 41.0254C6.45833 40.3027 5.16493 40.5957 4.52257 41.6797L1.74479 46.3672C1.10243 47.4414 1.36285 48.8965 2.32639 49.6191C3.28993 50.3418 4.57465 50.0488 5.21701 48.9648L7.99479 44.2773C8.63715 43.2031 8.37674 41.748 7.4132 41.0254ZM15.7465 41.0254C14.7917 40.3027 13.4983 40.5957 12.8559 41.6797L10.0781 46.3672C9.43576 47.4414 9.69618 48.8965 10.6597 49.6191C11.6233 50.3418 12.908 50.0488 13.5503 48.9648L16.3281 44.2773C16.9705 43.2031 16.7101 41.748 15.7465 41.0254ZM24.0799 41.0254C23.125 40.3027 21.8316 40.5957 21.1892 41.6797L18.4115 46.3672C17.7691 47.4414 18.0295 48.8965 18.9931 49.6191C19.9566 50.3418 21.2413 50.0488 21.8837 48.9648L24.6615 44.2773C25.3038 43.2031 25.0434 41.748 24.0799 41.0254ZM32.4132 41.0254C31.4583 40.3027 30.1649 40.5957 29.5226 41.6797L26.7448 46.3672C26.1024 47.4414 26.3628 48.8965 27.3264 49.6191C28.2899 50.3418 29.5747 50.0488 30.217 48.9648L32.9948 44.2773C33.6372 43.2031 33.3767 41.748 32.4132 41.0254Z" fill="#2EBEFC"/>
</g>
<defs>
<clipPath id="clip0_61_21">
<rect width="50" height="50" fill="white"/>
</clipPath>
</defs>
</svg>
