<svg width="50" height="50" viewBox="0 0 50 50" fill="none" xmlns="http://www.w3.org/2000/svg">
<path d="M5.625 6.25C5.625 4.5924 6.08594 3.00268 6.90641 1.83058C7.72688 0.65848 8.83968 0 10 0C11.1603 0 12.2731 0.65848 13.0936 1.83058C13.9141 3.00268 14.375 4.5924 14.375 6.25C14.375 7.9076 13.9141 9.49731 13.0936 10.6694C12.2731 11.8415 11.1603 12.5 10 12.5C8.83968 12.5 7.72688 11.8415 6.90641 10.6694C6.08594 9.49731 5.625 7.9076 5.625 6.25ZM5 23.8504C4.21875 25.1004 3.75 26.7634 3.75 28.5714C3.75 30.3795 4.21875 32.0424 5 33.2924V23.8504ZM16.2812 18.3482C13.9609 21.2835 12.5 25.5804 12.5 30.3571C12.5 34.1853 13.4375 37.7009 15 40.4576V42.8571C15 44.8326 13.8828 46.4286 12.5 46.4286H7.5C6.11719 46.4286 5 44.8326 5 42.8571V39.8661C2.04688 37.8571 0 33.5603 0 28.5714C0 21.6629 3.91406 16.0714 8.75 16.0714H11.25C13.125 16.0714 14.8594 16.9085 16.2812 18.3371V18.3482ZM35 42.8571V40.4576C36.5625 37.7009 37.5 34.1853 37.5 30.3571C37.5 25.5804 36.0391 21.2835 33.7188 18.3371C35.1406 16.9085 36.875 16.0714 38.75 16.0714H41.25C46.0859 16.0714 50 21.6629 50 28.5714C50 33.5603 47.9531 37.8571 45 39.8661V42.8571C45 44.8326 43.8828 46.4286 42.5 46.4286H37.5C36.1172 46.4286 35 44.8326 35 42.8571ZM35.625 6.25C35.625 4.5924 36.0859 3.00268 36.9064 1.83058C37.7269 0.65848 38.8397 0 40 0C41.1603 0 42.2731 0.65848 43.0936 1.83058C43.9141 3.00268 44.375 4.5924 44.375 6.25C44.375 7.9076 43.9141 9.49731 43.0936 10.6694C42.2731 11.8415 41.1603 12.5 40 12.5C38.8397 12.5 37.7269 11.8415 36.9064 10.6694C36.0859 9.49731 35.625 7.9076 35.625 6.25ZM45 23.8504V33.3036C45.7812 32.0424 46.25 30.3906 46.25 28.5826C46.25 26.7746 45.7812 25.1116 45 23.8616V23.8504ZM25 0C26.3261 0 27.5979 0.752549 28.5355 2.09209C29.4732 3.43164 30 5.24845 30 7.14286C30 9.03726 29.4732 10.8541 28.5355 12.1936C27.5979 13.5332 26.3261 14.2857 25 14.2857C23.6739 14.2857 22.4021 13.5332 21.4645 12.1936C20.5268 10.8541 20 9.03726 20 7.14286C20 5.24845 20.5268 3.43164 21.4645 2.09209C22.4021 0.752549 23.6739 0 25 0ZM18.75 30.3571C18.75 32.1652 19.2188 33.817 20 35.0781V25.6362C19.2188 26.8973 18.75 28.5491 18.75 30.3571ZM30 25.6362V35.0893C30.7812 33.8281 31.25 32.1763 31.25 30.3683C31.25 28.5603 30.7812 26.8973 30 25.6473V25.6362ZM35 30.3571C35 35.346 32.9531 39.6429 30 41.6518V46.4286C30 48.404 28.8828 50 27.5 50H22.5C21.1172 50 20 48.404 20 46.4286V41.6518C17.0469 39.6429 15 35.346 15 30.3571C15 23.4487 18.9141 17.8571 23.75 17.8571H26.25C31.0859 17.8571 35 23.4487 35 30.3571Z" fill="#2EBEFC"/>
</svg>
