<svg width="50" height="50" viewBox="0 0 50 50" fill="none" xmlns="http://www.w3.org/2000/svg">
<path d="M4.64844 29.4907L22.2949 48.7553C23.0273 49.5546 23.9941 50 25 50C26.0059 50 26.9727 49.5546 27.7051 48.7553L45.3516 29.4907C48.3203 26.2589 50 21.7254 50 16.9863V16.324C50 8.34181 45.0684 1.53581 38.3398 0.222577C33.8867 -0.645302 29.3555 1.0562 26.1719 4.77894L25 6.14928L23.8281 4.77894C20.6445 1.0562 16.1133 -0.645302 11.6602 0.222577C4.93164 1.53581 0 8.34181 0 16.324V16.9863C0 21.7254 1.67969 26.2589 4.64844 29.4907Z" fill="#2EBEFC"/>
</svg>
