<svg width="50" height="50" viewBox="0 0 50 50" fill="none" xmlns="http://www.w3.org/2000/svg">
<path d="M11.1079 10.6799C11.1079 4.78754 14.8325 0 19.4167 0C23.6102 0 27.1439 4.01751 27.6648 9.36304L27.7516 10.2781C27.9426 12.2311 26.866 14.0167 25.338 14.2622C23.8099 14.5077 22.4294 13.1239 22.2384 11.1598L22.1516 10.2447C21.978 8.47026 20.8059 7.14225 19.4167 7.14225C17.8973 7.14225 16.6645 8.72693 16.6645 10.6799V21.4267H33.3343V10.6799C33.3343 4.78754 37.0589 0 41.6431 0C45.8366 0 49.3703 4.01751 49.8912 9.36304L49.9781 10.2781C50.1691 12.2311 49.0925 14.0167 47.5644 14.2622C46.0363 14.5077 44.6559 13.1239 44.4649 11.1598L44.378 10.2447C44.2044 8.47026 43.0323 7.14225 41.6431 7.14225C40.1238 7.14225 38.8909 8.72693 38.8909 10.6799V36.7156C38.752 36.8272 38.6044 36.9388 38.4741 37.0616C36.9113 38.4454 34.9926 39.327 33.3343 39.327V28.569H16.6645V39.3382C15.0148 39.3382 13.0874 38.4565 11.5333 37.0727C11.3944 36.95 11.2555 36.8272 11.1079 36.7268V10.6799ZM26.6056 39.9408C28.5591 41.6705 30.9467 42.8535 33.3343 42.8535C35.6698 42.8535 38.1442 41.6482 40.0543 39.9408C41.0875 38.9922 42.494 39.0703 43.4577 40.1305C44.708 41.4585 46.2794 42.4741 47.8509 42.9428C49.3443 43.3892 50.2732 45.3086 49.926 47.2281C49.5787 49.1476 48.0853 50.3417 46.592 49.8953C44.4649 49.2592 42.6937 48.0539 41.539 47.1054C39.0211 48.8463 36.1994 49.9957 33.3343 49.9957C30.5647 49.9957 28.0729 48.8909 26.3538 47.8865C25.8502 47.5852 25.3901 47.2951 24.9994 47.0272C24.6087 47.2951 24.1572 47.5964 23.6449 47.8865C21.9259 48.8909 19.4341 49.9957 16.6645 49.9957C13.7993 49.9957 10.9776 48.8463 8.45978 47.1165C7.29637 48.0539 5.53388 49.2703 3.40674 49.9065C1.9134 50.3528 0.420067 49.1587 0.0727787 47.2393C-0.274509 45.3198 0.654486 43.4003 2.14782 42.9539C3.7193 42.4852 5.29078 41.4697 6.54102 40.1417C7.50474 39.0926 8.91126 39.0145 9.94444 39.9519C11.8632 41.6482 14.3289 42.8535 16.6645 42.8535C19.0521 42.8535 21.4397 41.6705 23.3932 39.9408C24.3569 39.0592 25.6419 39.0592 26.6056 39.9408Z" fill="#2EBEFC"/>
</svg>
