<svg width="50" height="50" viewBox="0 0 50 50" fill="none" xmlns="http://www.w3.org/2000/svg">
<g clip-path="url(#clip0_61_25)">
<path d="M35.3027 0.117385C35.791 0.322463 36.1425 0.761916 36.2402 1.27949L38.1835 11.8166L48.7207 13.7502C49.2382 13.8479 49.6777 14.1994 49.8828 14.6877C50.0878 15.176 50.0293 15.7326 49.7265 16.1721L43.6425 25.0002L49.7265 33.8186C50.0293 34.258 50.0878 34.8147 49.8828 35.3029C49.6777 35.7912 49.2382 36.1428 48.7207 36.2404L38.1835 38.1838L36.2402 48.7209C36.1425 49.2385 35.791 49.6779 35.3027 49.883C34.8144 50.0881 34.2578 50.0295 33.8183 49.7268L25 43.6428L16.1816 49.7268C15.7421 50.0295 15.1855 50.0881 14.6972 49.883C14.2089 49.6779 13.8574 49.2385 13.7597 48.7209L11.8164 38.1838L1.27925 36.2404C0.761672 36.1428 0.322219 35.7912 0.117141 35.3029C-0.0879371 34.8147 -0.0293433 34.258 0.273391 33.8186L6.35738 25.0002L0.273391 16.1818C-0.0293433 15.7424 -0.0879371 15.1857 0.117141 14.6975C0.322219 14.2092 0.761672 13.8576 1.27925 13.76L11.8164 11.8166L13.7597 1.27949C13.8574 0.761916 14.2089 0.322463 14.6972 0.117385C15.1855 -0.0876929 15.7421 -0.0290992 16.1816 0.273635L25 6.35762L33.8183 0.273635C34.2578 -0.0290992 34.8144 -0.0876929 35.3027 0.117385ZM15.625 25.0002C15.625 22.5138 16.6127 20.1292 18.3708 18.3711C20.129 16.6129 22.5135 15.6252 25 15.6252C27.4864 15.6252 29.8709 16.6129 31.6291 18.3711C33.3872 20.1292 34.375 22.5138 34.375 25.0002C34.375 27.4866 33.3872 29.8712 31.6291 31.6293C29.8709 33.3875 27.4864 34.3752 25 34.3752C22.5135 34.3752 20.129 33.3875 18.3708 31.6293C16.6127 29.8712 15.625 27.4866 15.625 25.0002ZM37.5 25.0002C37.5 21.685 36.183 18.5056 33.8388 16.1614C31.4946 13.8172 28.3152 12.5002 25 12.5002C21.6847 12.5002 18.5053 13.8172 16.1611 16.1614C13.8169 18.5056 12.5 21.685 12.5 25.0002C12.5 28.3154 13.8169 31.4948 16.1611 33.839C18.5053 36.1832 21.6847 37.5002 25 37.5002C28.3152 37.5002 31.4946 36.1832 33.8388 33.839C36.183 31.4948 37.5 28.3154 37.5 25.0002Z" fill="#2EBEFC"/>
</g>
<defs>
<clipPath id="clip0_61_25">
<rect width="50" height="50" fill="white"/>
</clipPath>
</defs>
</svg>
