<svg width="22" height="20" viewBox="0 0 22 20" fill="none" xmlns="http://www.w3.org/2000/svg">
<g clip-path="url(#clip0_104_139)">
<path d="M11.7222 2.39107V1.94141V1.25C11.7222 0.824084 11.3894 0.5 11 0.5C10.6106 0.5 10.2778 0.824084 10.2778 1.25V1.94141V2.39107L9.83064 2.4386C5.01338 2.95072 1.16411 6.59544 0.576239 11.2309L0.0802118 11.168L0.576329 11.2302C0.570846 11.2739 0.580205 11.2997 0.589728 11.3161C0.601075 11.3356 0.620234 11.3538 0.645201 11.3656C0.670183 11.3773 0.692756 11.3789 0.708447 11.3761C0.719949 11.3741 0.73978 11.3681 0.76567 11.3388C1.41182 10.5982 2.60214 10.125 3.66667 10.125C5.39549 10.125 6.82435 11.3797 7.15135 13.0306C7.16714 13.1078 7.20383 13.1696 7.2426 13.207C7.27857 13.2417 7.30883 13.25 7.33334 13.25C7.35851 13.25 7.38995 13.2411 7.42624 13.2063C7.46511 13.1689 7.5004 13.1086 7.51444 13.0351L7.51504 13.0319L7.51505 13.0319C7.84155 11.3804 9.27071 10.125 11 10.125C12.7288 10.125 14.1577 11.3798 14.4847 13.0307M11.7222 2.39107L13.9944 13.1289M11.7222 2.39107L12.1694 2.4386C16.9865 2.95071 20.8357 6.59529 21.4237 11.2306M11.7222 2.39107L12.2222 1.94141M14.4847 13.0307C14.4848 13.0311 14.4849 13.0315 14.485 13.0319L13.9944 13.1289M14.4847 13.0307C14.4846 13.0304 14.4846 13.0301 14.4845 13.0298L13.9944 13.1289M14.4847 13.0307C14.5005 13.1078 14.5372 13.1696 14.5759 13.207C14.6119 13.2417 14.6422 13.25 14.6667 13.25C14.6918 13.25 14.7233 13.2411 14.7596 13.2063C14.7984 13.1689 14.8337 13.1086 14.8478 13.0351L14.8484 13.0319C15.1749 11.3804 16.604 10.125 18.3333 10.125C19.3981 10.125 20.588 10.5984 21.2338 11.3343C21.2603 11.3644 21.2808 11.3709 21.293 11.3731C21.3091 11.376 21.3318 11.3744 21.3564 11.3629C21.3811 11.3514 21.3997 11.3336 21.4106 11.3149C21.4197 11.2993 21.4291 11.2741 21.4237 11.2306M13.9944 13.1289C14.0632 13.4688 14.3267 13.75 14.6667 13.75C15.0066 13.75 15.274 13.4688 15.3389 13.1289C15.6215 11.6992 16.8552 10.625 18.3333 10.625C19.2806 10.625 20.3233 11.0547 20.858 11.6641C21.259 12.1211 21.9962 11.7773 21.9198 11.168M21.4237 11.2306C21.4237 11.2307 21.4238 11.2308 21.4238 11.2309L21.9198 11.168M21.4237 11.2306C21.4237 11.2305 21.4237 11.2303 21.4237 11.2302L21.9198 11.168M21.9198 11.168C21.301 6.28906 17.2563 2.47656 12.2222 1.94141M12.2222 1.94141V1.25C12.2222 0.558594 11.676 0 11 0C10.324 0 9.77778 0.558594 9.77778 1.25V1.94141H12.2222ZM6.69582 17.8428L6.69584 17.8428L6.69399 17.839C6.50927 17.4612 6.66338 17.0096 7.01862 16.828C7.36681 16.6499 7.79731 16.7888 7.97955 17.1594C7.97981 17.16 7.98007 17.1605 7.98033 17.161L8.06634 17.3408L8.06629 17.3408L8.06965 17.3476C8.26616 17.7429 8.66564 18 9.1132 18C9.76654 18 10.2778 17.4608 10.2778 16.8203V12.5932C10.4864 12.4544 10.7339 12.375 11 12.375C11.2661 12.375 11.5136 12.4544 11.7222 12.5932V16.8203C11.7222 18.3122 10.5418 19.5 9.1132 19.5C8.13276 19.5 7.22816 18.9338 6.78274 18.0244C6.78244 18.0238 6.78214 18.0232 6.78183 18.0226L6.69582 17.8428Z" fill="white" stroke="black"/>
</g>
<defs>
<clipPath id="clip0_104_139">
<rect width="22" height="20" fill="white"/>
</clipPath>
</defs>
</svg>
