<svg width="19" height="23" viewBox="0 0 19 23" fill="none" xmlns="http://www.w3.org/2000/svg">
<path d="M9.1397 2.44353C7.07039 2.44353 5.36925 3.95038 4.06482 5.88993C2.84292 7.7124 1.99869 9.87594 1.56706 11.4031C1.99869 12.9304 2.84292 15.0939 4.06165 16.9164C5.36925 18.8559 7.07039 20.3628 9.1397 20.3628C11.209 20.3628 12.9102 18.8559 14.2146 16.9164C15.4365 15.0939 16.2807 12.9304 16.7123 11.4031C16.2807 9.87594 15.4365 7.7124 14.2178 5.88993C12.9102 3.95038 11.209 2.44353 9.1397 2.44353ZM3.02699 4.1031C4.52185 1.87337 6.57528 0 9.1397 0C11.7041 0 13.7576 1.87337 15.2524 4.1031C16.7377 6.31755 17.7311 8.95962 18.204 10.777C18.3088 11.1792 18.3088 11.6271 18.204 12.0293C17.7311 13.8467 16.7377 16.4938 15.2524 18.7032C13.7576 20.9329 11.7041 22.8063 9.1397 22.8063C6.57528 22.8063 4.52185 20.9329 3.02699 18.7032C1.54166 16.4938 0.548271 13.8467 0.0785511 12.0293C-0.0261837 11.6271 -0.0261837 11.1792 0.0785511 10.777C0.548271 8.95962 1.54166 6.31246 3.02699 4.1031ZM9.1397 15.4757C10.5425 15.4757 11.6787 13.6532 11.6787 11.4031C11.6787 9.15306 10.5425 7.3306 9.1397 7.3306C9.11749 7.3306 9.09844 7.3306 9.07623 7.3306C9.11748 7.59022 9.1397 7.86512 9.1397 8.14511C9.1397 9.94212 8.22882 11.4031 7.10848 11.4031C6.93392 11.4031 6.76254 11.3675 6.60067 11.3013C6.60067 11.337 6.60067 11.3675 6.60067 11.4031C6.60067 13.6532 7.73689 15.4757 9.1397 15.4757ZM9.1397 4.88706C10.2171 4.88706 11.2504 5.57358 12.0123 6.79558C12.7741 8.01758 13.2021 9.67498 13.2021 11.4031C13.2021 13.1313 12.7741 14.7887 12.0123 16.0107C11.2504 17.2327 10.2171 17.9192 9.1397 17.9192C8.06227 17.9192 7.02898 17.2327 6.26712 16.0107C5.50526 14.7887 5.07726 13.1313 5.07726 11.4031C5.07726 9.67498 5.50526 8.01758 6.26712 6.79558C7.02898 5.57358 8.06227 4.88706 9.1397 4.88706Z" fill="black"/>
</svg>
