<svg width="39" height="39" viewBox="0 0 39 39" fill="none" xmlns="http://www.w3.org/2000/svg">
<path d="M23.6895 14.9906V21.1834C23.6895 21.3434 23.5676 21.4652 23.4076 21.4652H22.4174C22.3184 21.4652 22.2346 21.4119 22.1889 21.351L19.3477 17.5195V21.191C19.3477 21.351 19.2258 21.4729 19.0658 21.4729H18.0756C17.9156 21.4729 17.7938 21.351 17.7938 21.191V14.9982C17.7938 14.8383 17.9156 14.7164 18.0756 14.7164H19.0582C19.142 14.7164 19.241 14.7621 19.2867 14.8383L22.1279 18.6697V14.9982C22.1279 14.8383 22.2498 14.7164 22.4098 14.7164H23.4C23.56 14.7088 23.6895 14.8383 23.6895 14.983V14.9906ZM16.5522 14.7088H15.5619C15.402 14.7088 15.2801 14.8307 15.2801 14.9906V21.1834C15.2801 21.3434 15.402 21.4652 15.5619 21.4652H16.5522C16.7121 21.4652 16.834 21.3434 16.834 21.1834V14.9906C16.834 14.8459 16.7121 14.7088 16.5522 14.7088ZM14.1604 19.8961H11.4486V14.9906C11.4486 14.8307 11.3268 14.7088 11.1668 14.7088H10.1766C10.0166 14.7088 9.89473 14.8307 9.89473 14.9906V21.1834C9.89473 21.2596 9.91758 21.3205 9.97091 21.3738C10.0242 21.4195 10.0852 21.45 10.1613 21.45H14.1375C14.2975 21.45 14.4193 21.3281 14.4193 21.1682V20.1779C14.4193 20.0332 14.2975 19.8961 14.1527 19.8961H14.1604ZM28.9148 14.7088H24.9311C24.7863 14.7088 24.6492 14.8307 24.6492 14.9906V21.1834C24.6492 21.3281 24.7711 21.4652 24.9311 21.4652H28.9072C29.0672 21.4652 29.1891 21.3434 29.1891 21.1834V20.1855C29.1891 20.0256 29.0672 19.9037 28.9072 19.9037H26.2031V18.8678H28.9072C29.0672 18.8678 29.1891 18.7459 29.1891 18.5859V17.5881C29.1891 17.4281 29.0672 17.3063 28.9072 17.3063H26.2031V16.2627H28.9072C29.0672 16.2627 29.1891 16.1408 29.1891 15.9809V14.9906C29.1814 14.8459 29.0596 14.7088 28.9072 14.7088H28.9148ZM39 7.11446V31.9465C38.9924 35.8465 35.7932 39.0076 31.8855 39H7.05352C3.15353 38.9924 -0.00760345 35.7855 1.37371e-05 31.8855V7.05352C0.00763092 3.15353 3.21446 -0.00760345 7.11446 1.37371e-05H31.9465C35.8465 0.00763092 39.0076 3.20685 39 7.11446ZM33.6375 17.7861C33.6375 11.4334 27.2619 6.26134 19.4391 6.26134C11.6162 6.26134 5.24064 11.4334 5.24064 17.7861C5.24064 23.4762 10.2908 28.2521 17.1158 29.1586C18.7764 29.5166 18.5859 30.126 18.2127 32.3654C18.1518 32.7234 17.9232 33.767 19.4391 33.1348C20.9549 32.5025 27.6123 28.3207 30.5982 24.893C32.6549 22.6307 33.6375 20.3379 33.6375 17.8014V17.7861Z" fill="white"/>
</svg>
