<svg width="59" height="62" viewBox="0 0 59 62" fill="none" xmlns="http://www.w3.org/2000/svg">
<path d="M35.8379 23.8313V33.6762C35.8379 33.9305 35.6535 34.1242 35.4115 34.1242H33.9135C33.7637 34.1242 33.6369 34.0395 33.5678 33.9426L29.2696 27.8516V33.6883C29.2696 33.9426 29.0852 34.1363 28.8432 34.1363H27.3451C27.1031 34.1363 26.9188 33.9426 26.9188 33.6883V23.8434C26.9188 23.5891 27.1031 23.3953 27.3451 23.3953H28.8317C28.9584 23.3953 29.1082 23.468 29.1774 23.5891L33.4756 29.6801V23.8434C33.4756 23.5891 33.66 23.3953 33.902 23.3953H35.4C35.642 23.3832 35.8379 23.5891 35.8379 23.8192V23.8313ZM25.0405 23.3832H23.5424C23.3004 23.3832 23.116 23.577 23.116 23.8313V33.6762C23.116 33.9305 23.3004 34.1242 23.5424 34.1242H25.0405C25.2824 34.1242 25.4668 33.9305 25.4668 33.6762V23.8313C25.4668 23.6012 25.2824 23.3832 25.0405 23.3832ZM21.4221 31.6297H17.3197V23.8313C17.3197 23.577 17.1354 23.3832 16.8934 23.3832H15.3953C15.1533 23.3832 14.969 23.577 14.969 23.8313V33.6762C14.969 33.7973 15.0035 33.8942 15.0842 33.9789C15.1649 34.0516 15.2571 34.1 15.3723 34.1H21.3875C21.6295 34.1 21.8139 33.9063 21.8139 33.652V32.0778C21.8139 31.8477 21.6295 31.6297 21.4106 31.6297H21.4221ZM43.743 23.3832H37.7162C37.4973 23.3832 37.2899 23.577 37.2899 23.8313V33.6762C37.2899 33.9063 37.4742 34.1242 37.7162 34.1242H43.7315C43.9735 34.1242 44.1578 33.9305 44.1578 33.6762V32.0899C44.1578 31.8356 43.9735 31.6418 43.7315 31.6418H39.6406V29.9949H43.7315C43.9735 29.9949 44.1578 29.8012 44.1578 29.5469V27.9606C44.1578 27.7063 43.9735 27.5125 43.7315 27.5125H39.6406V25.8535H43.7315C43.9735 25.8535 44.1578 25.6598 44.1578 25.4055V23.8313C44.1463 23.6012 43.9619 23.3832 43.7315 23.3832H43.743ZM59 11.3102V50.7867C58.9885 56.9867 54.1487 62.0121 48.2371 62H10.6707C4.77072 61.9879 -0.0115027 56.8899 2.07818e-05 50.6899V11.2133C0.0115442 5.0133 4.86291 -0.0120875 10.7629 2.18385e-05H48.3293C54.2293 0.0121312 59.0115 5.09807 59 11.3102ZM50.8875 28.2754C50.8875 18.1762 41.2424 9.95393 29.4078 9.95393C17.5733 9.95393 7.92815 18.1762 7.92815 28.2754C7.92815 37.3211 15.5682 44.9137 25.8932 46.3547C28.4053 46.9239 28.1172 47.8926 27.5526 51.4528C27.4604 52.0219 27.1147 53.6809 29.4078 52.6758C31.701 51.6707 41.7725 45.0227 46.2897 39.5735C49.401 35.977 50.8875 32.3321 50.8875 28.2996V28.2754Z" fill="#52FF00"/>
</svg>
