<svg width="44" height="36" viewBox="0 0 44 36" fill="none" xmlns="http://www.w3.org/2000/svg">
<path d="M39.4773 8.97184C39.5052 9.36557 39.5052 9.75939 39.5052 10.1531C39.5052 22.1624 30.4316 36 13.8478 36C8.73859 36 3.99241 34.5093 0 31.9219C0.725917 32.0062 1.42382 32.0344 2.17766 32.0344C6.39335 32.0344 10.2741 30.6 13.3731 28.1532C9.40865 28.0688 6.08629 25.4531 4.9416 21.8531C5.50002 21.9374 6.05836 21.9937 6.64471 21.9937C7.45433 21.9937 8.26404 21.8812 9.0178 21.6844C4.88582 20.8406 1.78673 17.1844 1.78673 12.7687V12.6563C2.9872 13.3313 4.38326 13.7531 5.86285 13.8093C3.4339 12.178 1.84259 9.39371 1.84259 6.24369C1.84259 4.55622 2.28921 3.00934 3.07099 1.65933C7.51011 7.17183 14.1828 10.7718 21.6649 11.1656C21.5254 10.4906 21.4416 9.78753 21.4416 9.08439C21.4416 4.07808 25.4619 0 30.4594 0C33.0558 0 35.401 1.09687 37.0482 2.86875C39.0862 2.47502 41.0406 1.7156 42.7716 0.675005C42.1015 2.78443 40.6776 4.5563 38.8071 5.68123C40.6219 5.48445 42.3808 4.97808 44 4.27503C42.7718 6.07496 41.2362 7.67802 39.4773 8.97184Z" fill="white"/>
</svg>
